SplineFontDB: 3.2
FontName: MyCustomFont
FullName: MyCustomFont
FamilyName: MyCustomFont
Weight: Book
Copyright: Copyright (c) 2019, hhakob
Version: 001.000
ItalicAngle: 0
UnderlinePosition: -100
UnderlineWidth: 50
Ascent: 800
Descent: 200
InvalidEm: 0
sfntRevision: 0x00010000
LayerCount: 3
Layer: 0 1 "Back" 1
Layer: 1 1 "Fore" 0
Layer: 2 0 "Back 2" 1
XUID: [1021 978 -756504791 17444]
StyleMap: 0x0000
FSType: 0
OS2Version: 4
OS2_WeightWidthSlopeOnly: 0
OS2_UseTypoMetrics: 1
CreationTime: 1573478959
ModificationTime: 1574685750
PfmFamily: 17
TTFWeight: 400
TTFWidth: 5
LineGap: 90
VLineGap: 0
Panose: 2 0 5 9 0 0 0 0 0 0
OS2TypoAscent: 800
OS2TypoAOffset: 0
OS2TypoDescent: -200
OS2TypoDOffset: 0
OS2TypoLinegap: 90
OS2WinAscent: 729
OS2WinAOffset: 0
OS2WinDescent: 0
OS2WinDOffset: 0
HheadAscent: 729
HheadAOffset: 0
HheadDescent: 0
HheadDOffset: 0
OS2SubXSize: 650
OS2SubYSize: 699
OS2SubXOff: 0
OS2SubYOff: 140
OS2SupXSize: 650
OS2SupYSize: 699
OS2SupXOff: 0
OS2SupYOff: 479
OS2StrikeYSize: 49
OS2StrikeYPos: 258
OS2Vendor: 'PfEd'
OS2CodePages: 00000001.00000000
OS2UnicodeRanges: 00000000.00000000.00000000.00000000
MarkAttachClasses: 1
DEI: 91125
ShortTable: cvt  2
  33
  633
EndShort
ShortTable: maxp 16
  1
  0
  20
  88
  22
  0
  0
  2
  0
  1
  1
  0
  64
  46
  0
  0
EndShort
LangName: 1033 "" "" "Regular" "FontForge 2.0 : MyCustomFont : 11-11-2019"
GaspTable: 1 65535 2 0
Encoding: UnicodeBmp
UnicodeInterp: none
NameList: AGL For New Fonts
DisplaySize: -48
AntiAlias: 1
FitToEm: 0
WinInfo: 0 39 14
BeginChars: 65539 28

StartChar: .notdef
Encoding: 65536 -1 0
Width: 1000
Flags: W
LayerCount: 3
Fore
SplineSet
33 0 m 1,0,-1
 33 666 l 1,1,-1
 298 666 l 1,2,-1
 298 0 l 1,3,-1
 33 0 l 1,0,-1
66 33 m 1,4,-1
 265 33 l 1,5,-1
 265 633 l 1,6,-1
 66 633 l 1,7,-1
 66 33 l 1,4,-1
EndSplineSet
EndChar

StartChar: exclam
Encoding: 33 33 3
Width: 1000
GlyphClass: 2
Flags: W
LayerCount: 3
Fore
SplineSet
346 756 m 2,0,1
 337 756 337 756 328.5 749.5 c 128,-1,2
 320 743 320 743 320 733 c 2,3,-1
 320 473 l 2,4,5
 320 465 320 465 327.5 457.5 c 128,-1,6
 335 450 335 450 346 450 c 2,7,-1
 630 450 l 2,8,9
 638 450 638 450 646.5 456.5 c 128,-1,10
 655 463 655 463 655 473 c 2,11,-1
 655 733 l 2,12,13
 655 741 655 741 647.5 748.5 c 128,-1,14
 640 756 640 756 630 756 c 2,15,-1
 346 756 l 2,0,1
371 710 m 1,16,-1
 605 710 l 1,17,-1
 605 496 l 1,18,-1
 371 496 l 1,19,-1
 371 710 l 1,16,-1
346 343 m 2,20,21
 337 343 337 343 328.5 336.5 c 128,-1,22
 320 330 320 330 320 320 c 2,23,-1
 320 60 l 2,24,25
 320 52 320 52 327.5 44.5 c 128,-1,26
 335 37 335 37 346 37 c 2,27,-1
 630 37 l 2,28,29
 638 37 638 37 646.5 44 c 128,-1,30
 655 51 655 51 655 60 c 2,31,-1
 655 320 l 2,32,33
 655 328 655 328 647.5 335.5 c 128,-1,34
 640 343 640 343 630 343 c 2,35,-1
 346 343 l 2,20,21
371 297 m 1,36,-1
 605 297 l 1,37,-1
 605 83 l 1,38,-1
 371 83 l 1,39,-1
 371 297 l 1,36,-1
346 343 m 2,40,41
 337 343 337 343 328.5 336.5 c 128,-1,42
 320 330 320 330 320 320 c 2,43,-1
 320 60 l 2,44,45
 320 52 320 52 327.5 44.5 c 128,-1,46
 335 37 335 37 346 37 c 2,47,-1
 630 37 l 2,48,49
 638 37 638 37 646.5 44 c 128,-1,50
 655 51 655 51 655 60 c 2,51,-1
 655 320 l 2,52,53
 655 328 655 328 647.5 335.5 c 128,-1,54
 640 343 640 343 630 343 c 2,55,-1
 346 343 l 2,40,41
371 297 m 1,56,-1
 605 297 l 1,57,-1
 605 83 l 1,58,-1
 371 83 l 1,59,-1
 371 297 l 1,56,-1
208 401 m 128,-1,61
 208 396 208 396 212 393 c 128,-1,62
 216 390 216 390 221 390 c 2,63,-1
 771 390 l 2,64,65
 776 390 776 390 779.5 393 c 128,-1,66
 783 396 783 396 783 401 c 128,-1,67
 783 406 783 406 779.5 409.5 c 128,-1,68
 776 413 776 413 771 413 c 2,69,-1
 221 413 l 2,70,71
 216 413 216 413 212 409.5 c 128,-1,60
 208 406 208 406 208 401 c 128,-1,61
EndSplineSet
EndChar

StartChar: quotedbl
Encoding: 34 34 4
Width: 1000
GlyphClass: 2
Flags: W
LayerCount: 3
Fore
SplineSet
71 621 m 2,0,1
 60 621 60 621 50 612.5 c 128,-1,2
 40 604 40 604 40 591 c 2,3,-1
 40 86 l 2,4,5
 40 75 40 75 49 65.5 c 128,-1,6
 58 56 58 56 71 56 c 2,7,-1
 585 56 l 2,8,9
 595 56 595 56 605 64.5 c 128,-1,10
 615 73 615 73 615 86 c 2,11,-1
 615 591 l 2,12,13
 615 602 615 602 606.5 611.5 c 128,-1,14
 598 621 598 621 585 621 c 2,15,-1
 71 621 l 2,0,1
101 561 m 1,16,-1
 555 561 l 1,17,-1
 555 115 l 1,18,-1
 101 115 l 1,19,-1
 101 561 l 1,16,-1
650 769 m 2,20,21
 639 769 639 769 629.5 760 c 128,-1,22
 620 751 620 751 620 739 c 2,23,-1
 620 443 l 2,24,25
 620 433 620 433 628.5 423.5 c 128,-1,26
 637 414 637 414 650 414 c 2,27,-1
 949 414 l 2,28,29
 960 414 960 414 969.5 422.5 c 128,-1,30
 979 431 979 431 979 443 c 2,31,-1
 979 739 l 2,32,33
 979 749 979 749 970.5 759 c 128,-1,34
 962 769 962 769 949 769 c 2,35,-1
 650 769 l 2,20,21
680 709 m 1,36,-1
 919 709 l 1,37,-1
 919 473 l 1,38,-1
 680 473 l 1,39,-1
 680 709 l 1,36,-1
EndSplineSet
EndChar

StartChar: numbersign
Encoding: 35 35 5
Width: 1000
GlyphClass: 2
Flags: W
LayerCount: 3
Fore
SplineSet
192 178 m 2,0,1
 200 178 200 178 206 173 c 128,-1,2
 212 168 212 168 212 160.5 c 128,-1,3
 212 153 212 153 206 147.5 c 128,-1,4
 200 142 200 142 192 142 c 2,5,-1
 141 142 l 2,6,7
 133 142 133 142 127 147.5 c 128,-1,8
 121 153 121 153 121 160.5 c 128,-1,9
 121 168 121 168 127 173 c 128,-1,10
 133 178 133 178 141 178 c 2,11,-1
 192 178 l 2,0,1
276.5 109 m 128,-1,13
 282 104 282 104 282 96.5 c 128,-1,14
 282 89 282 89 276 84 c 2,15,-1
 240 51 l 2,16,17
 235 46 235 46 226.5 46 c 128,-1,18
 218 46 218 46 212.5 51 c 128,-1,19
 207 56 207 56 207 63.5 c 128,-1,20
 207 71 207 71 212 76 c 2,21,-1
 248 109 l 2,22,23
 254 114 254 114 262.5 114 c 128,-1,12
 271 114 271 114 276.5 109 c 128,-1,13
854 169 m 2,24,25
 862 169 862 169 867.5 164 c 128,-1,26
 873 159 873 159 873 151.5 c 128,-1,27
 873 144 873 144 867.5 138.5 c 128,-1,28
 862 133 862 133 854 133 c 2,29,-1
 343 133 l 2,30,31
 314 133 314 133 294 152 c 2,32,-1
 177 258 l 2,33,34
 143 289 143 289 143 333.5 c 128,-1,35
 143 378 143 378 177 410 c 2,36,-1
 564 761 l 2,37,38
 576 772 576 772 592 772 c 128,-1,39
 608 772 608 772 620 761 c 2,40,-1
 862 541 l 2,41,42
 873 531 873 531 873 516 c 128,-1,43
 873 501 873 501 862 491 c 2,44,-1
 508 169 l 1,45,-1
 854 169 l 2,24,25
343 169 m 2,46,-1
 453 169 l 1,47,-1
 834 516 l 1,48,-1
 592 736 l 1,49,-1
 296 467 l 1,50,-1
 504 278 l 2,51,52
 510 273 510 273 510 265.5 c 128,-1,53
 510 258 510 258 504.5 253 c 128,-1,54
 499 248 499 248 490.5 248 c 128,-1,55
 482 248 482 248 477 253 c 2,56,-1
 269 442 l 1,57,-1
 205 384 l 2,58,59
 182 363 182 363 182 333.5 c 128,-1,60
 182 304 182 304 205 283 c 2,61,-1
 322 177 l 2,62,63
 330 169 330 169 343 169 c 2,46,-1
EndSplineSet
EndChar

StartChar: dollar
Encoding: 36 36 6
Width: 1000
GlyphClass: 2
Flags: W
LayerCount: 3
Fore
SplineSet
649 432 m 1,0,-1
 559 570 l 1,1,-1
 532 534 l 1,2,-1
 622 390 l 1,3,-1
 532 243 l 1,4,-1
 559 207 l 1,5,-1
 649 348 l 1,6,-1
 739 213 l 1,7,-1
 766 249 l 1,8,-1
 679 387 l 1,9,-1
 769 540 l 1,10,-1
 742 570 l 1,11,-1
 649 432 l 1,0,-1
327 705 m 1,12,-1
 957 708 l 1,13,-1
 957 111 l 1,14,-1
 315 111 l 1,15,-1
 22 423 l 1,16,-1
 327 705 l 1,12,-1
EndSplineSet
EndChar

StartChar: percent
Encoding: 37 37 7
Width: 1000
GlyphClass: 2
Flags: W
LayerCount: 3
Fore
SplineSet
391 631 m 2,0,1
 382 631 382 631 373 620.5 c 128,-1,2
 364 610 364 610 364 594 c 2,3,-1
 364 87 l 2,4,5
 364 74 364 74 372 61.5 c 128,-1,6
 380 49 380 49 391 49 c 2,7,-1
 781 49 l 2,8,9
 790 49 790 49 798.5 60 c 128,-1,10
 807 71 807 71 807 87 c 2,11,-1
 807 594 l 2,12,13
 807 607 807 607 799.5 619 c 128,-1,14
 792 631 792 631 781 631 c 2,15,-1
 391 631 l 2,0,1
418 556 m 1,16,-1
 754 556 l 1,17,-1
 754 124 l 1,18,-1
 418 124 l 1,19,-1
 418 556 l 1,16,-1
862 738.5 m 128,-1,21
 862 746 862 746 858 751.5 c 128,-1,22
 854 757 854 757 849 757 c 2,23,-1
 337 757 l 2,24,25
 327 757 327 757 324 743 c 2,26,-1
 221 212 l 1,27,-1
 180 332 l 2,28,29
 177 343 177 343 168 343 c 2,30,-1
 116 343 l 2,31,32
 110 343 110 343 106 337.5 c 128,-1,33
 102 332 102 332 102 324.5 c 128,-1,34
 102 317 102 317 106 311.5 c 128,-1,35
 110 306 110 306 116 306 c 2,36,-1
 160 306 l 1,37,-1
 212 150 l 2,38,39
 215 143 215 143 220 140 c 128,-1,40
 225 137 225 137 230.5 141 c 128,-1,41
 236 145 236 145 237 153 c 2,42,-1
 347 720 l 1,43,-1
 849 720 l 2,44,45
 854 720 854 720 858 725.5 c 128,-1,20
 862 731 862 731 862 738.5 c 128,-1,21
EndSplineSet
EndChar

StartChar: ampersand
Encoding: 38 38 8
Width: 1000
GlyphClass: 2
Flags: W
LayerCount: 3
Fore
SplineSet
39 228 m 2,0,1
 28 228 28 228 18 219.5 c 128,-1,2
 8 211 8 211 8 199 c 2,3,-1
 8 -65 l 2,4,5
 8 -75 8 -75 17 -84.5 c 128,-1,6
 26 -94 26 -94 39 -94 c 2,7,-1
 316 -94 l 2,8,9
 327 -94 327 -94 337 -86 c 128,-1,10
 347 -78 347 -78 347 -65 c 2,11,-1
 347 199 l 2,12,13
 347 209 347 209 338.5 218.5 c 128,-1,14
 330 228 330 228 316 228 c 2,15,-1
 39 228 l 2,0,1
70 169 m 1,16,-1
 286 169 l 1,17,-1
 286 -36 l 1,18,-1
 70 -36 l 1,19,-1
 70 169 l 1,16,-1
EndSplineSet
EndChar

StartChar: quotesingle
Encoding: 39 39 9
Width: 1000
GlyphClass: 2
Flags: W
LayerCount: 3
Fore
SplineSet
71 182 m 2,0,1
 60 182 60 182 50 190.5 c 128,-1,2
 40 199 40 199 40 212 c 2,3,-1
 40 717 l 2,4,5
 40 728 40 728 49 737.5 c 128,-1,6
 58 747 58 747 71 747 c 2,7,-1
 585 747 l 2,8,9
 595 747 595 747 605 738.5 c 128,-1,10
 615 730 615 730 615 717 c 2,11,-1
 615 212 l 2,12,13
 615 201 615 201 606.5 191.5 c 128,-1,14
 598 182 598 182 585 182 c 2,15,-1
 71 182 l 2,0,1
101 242 m 1,16,-1
 555 242 l 1,17,-1
 555 688 l 1,18,-1
 101 688 l 1,19,-1
 101 242 l 1,16,-1
650 68 m 2,20,21
 647 68 647 68 630 77 c 0,22,23
 620 81 620 81 620 64 c 2,24,-1
 620 360 l 2,25,26
 620 405 620 405 628 413 c 0,27,28
 636 423 636 423 650 423 c 2,29,-1
 949 423 l 2,30,31
 960 423 960 423 970 415 c 0,32,33
 979 408 979 408 979 393 c 2,34,-1
 979 98 l 2,35,36
 980 87 980 87 971 78 c 0,37,38
 963 68 963 68 949 68 c 2,39,-1
 650 68 l 2,20,21
680 128 m 1,40,-1
 919 128 l 1,41,-1
 919 364 l 1,42,-1
 680 364 l 1,43,-1
 680 128 l 1,40,-1
EndSplineSet
EndChar

StartChar: parenleft
Encoding: 40 40 10
Width: 1000
GlyphClass: 2
Flags: W
LayerCount: 3
Fore
SplineSet
707 728 m 4,0,1
 707 713 707 713 698.5 705.5 c 132,-1,2
 690 698 690 698 678 698 c 4,3,4
 667 698 667 698 658 705.5 c 132,-1,5
 649 713 649 713 649 727 c 4,6,7
 649 736 649 736 655.5 745 c 132,-1,8
 662 754 662 754 675 756 c 5,9,10
 658 771 658 771 631 771 c 4,11,12
 613 771 613 771 601.5 761.5 c 132,-1,13
 590 752 590 752 580.5 719 c 132,-1,14
 571 686 571 686 566 624 c 6,15,-1
 552 450 l 6,16,17
 548 391 548 391 534 275 c 132,-1,18
 520 159 520 159 513 132 c 4,19,20
 499 78 499 78 471 43 c 132,-1,21
 443 8 443 8 397 8 c 4,22,23
 365 8 365 8 342.5 24.5 c 132,-1,24
 320 41 320 41 320 66 c 4,25,26
 320 81 320 81 329 89 c 132,-1,27
 338 97 338 97 350 97 c 4,28,29
 361 97 361 97 369.5 89 c 132,-1,30
 378 81 378 81 378 67 c 4,31,32
 378 58 378 58 372 49.5 c 132,-1,33
 366 41 366 41 352 38 c 5,34,35
 369 24 369 24 397 24 c 4,36,37
 429 24 429 24 447 56 c 132,-1,38
 465 88 465 88 471 170 c 6,39,-1
 485 344 l 6,40,41
 490 406 490 406 504 520.5 c 132,-1,42
 518 635 518 635 524 665 c 4,43,44
 552 786 552 786 630 786 c 4,45,46
 662 786 662 786 684.5 769.5 c 132,-1,47
 707 753 707 753 707 728 c 4,0,1
753 882 m 2,48,49
 748 882 748 882 743 878 c 128,-1,50
 738 874 738 874 738 867 c 2,51,-1
 738 736 l 2,52,53
 738 730 738 730 742 725.5 c 128,-1,54
 746 721 746 721 753 721 c 2,55,-1
 892 721 l 2,56,57
 897 721 897 721 902 725 c 128,-1,58
 907 729 907 729 907 736 c 2,59,-1
 907 867 l 2,60,61
 907 873 907 873 902.5 877.5 c 128,-1,62
 898 882 898 882 892 882 c 2,63,-1
 753 882 l 2,48,49
768 853 m 1,64,-1
 876 853 l 1,65,-1
 876 750 l 1,66,-1
 768 750 l 1,67,-1
 768 853 l 1,64,-1
571 84 m 2,68,69
 566 84 566 84 561 80 c 128,-1,70
 556 76 556 76 556 69 c 2,71,-1
 556 -62 l 2,72,73
 556 -68 556 -68 560.5 -72.5 c 128,-1,74
 565 -77 565 -77 571 -77 c 2,75,-1
 710 -77 l 2,76,77
 715 -77 715 -77 720 -73 c 128,-1,78
 725 -69 725 -69 725 -62 c 2,79,-1
 725 69 l 2,80,81
 725 74 725 74 721 79 c 128,-1,82
 717 84 717 84 710 84 c 2,83,-1
 571 84 l 2,68,69
587 55 m 1,84,-1
 695 55 l 1,85,-1
 695 -48 l 1,86,-1
 587 -48 l 1,87,-1
 587 55 l 1,84,-1
EndSplineSet
EndChar

StartChar: parenright
Encoding: 41 41 11
Width: 1000
GlyphClass: 2
Flags: W
LayerCount: 3
Fore
SplineSet
707 728 m 0,0,1
 707 713 707 713 698.5 705.5 c 128,-1,2
 690 698 690 698 678 698 c 0,3,4
 667 698 667 698 658 705.5 c 128,-1,5
 649 713 649 713 649 727 c 0,6,7
 649 736 649 736 655.5 745 c 128,-1,8
 662 754 662 754 675 756 c 1,9,10
 658 771 658 771 631 771 c 0,11,12
 613 771 613 771 601.5 761.5 c 128,-1,13
 590 752 590 752 580.5 719 c 128,-1,14
 571 686 571 686 566 624 c 2,15,-1
 552 450 l 2,16,17
 548 391 548 391 534 275 c 128,-1,18
 520 159 520 159 513 132 c 0,19,20
 499 78 499 78 471 43 c 128,-1,21
 443 8 443 8 397 8 c 0,22,23
 365 8 365 8 342.5 24.5 c 128,-1,24
 320 41 320 41 320 66 c 0,25,26
 320 81 320 81 329 89 c 128,-1,27
 338 97 338 97 350 97 c 0,28,29
 361 97 361 97 369.5 89 c 128,-1,30
 378 81 378 81 378 67 c 0,31,32
 378 58 378 58 372 49.5 c 128,-1,33
 366 41 366 41 352 38 c 1,34,35
 369 24 369 24 397 24 c 0,36,37
 429 24 429 24 447 56 c 128,-1,38
 465 88 465 88 471 170 c 2,39,-1
 485 344 l 2,40,41
 490 406 490 406 504 520.5 c 128,-1,42
 518 635 518 635 524 665 c 0,43,44
 552 786 552 786 630 786 c 0,45,46
 662 786 662 786 684.5 769.5 c 128,-1,47
 707 753 707 753 707 728 c 0,0,1
568 80 m 2,48,49
 564 80 564 80 557 75.5 c 0,50,51
 552 73 552 73 552 65 c 2,52,-1
 552 -67 l 2,53,54
 552 -73 552 -73 556.5 -77 c 0,55,56
 562 -82 562 -82 568 -82 c 2,57,-1
 706 -82 l 2,58,59
 713 -82 713 -82 717 -77.5 c 0,60,61
 722 -71 722 -71 722 -67 c 2,62,-1
 722 65 l 2,63,64
 722 71 722 71 717.5 75 c 0,65,66
 712 80 712 80 706 80 c 2,67,-1
 568 80 l 2,48,49
583 50 m 1,68,-1
 691 50 l 1,69,-1
 691 -52 l 1,70,-1
 583 -52 l 1,71,-1
 583 50 l 1,68,-1
EndSplineSet
EndChar

StartChar: asterisk
Encoding: 42 42 12
Width: 1000
GlyphClass: 2
Flags: W
LayerCount: 3
Fore
SplineSet
707 728 m 0,0,1
 707 713 707 713 698.5 705.5 c 128,-1,2
 690 698 690 698 678 698 c 0,3,4
 667 698 667 698 658 705.5 c 128,-1,5
 649 713 649 713 649 727 c 0,6,7
 649 736 649 736 655.5 745 c 128,-1,8
 662 754 662 754 675 756 c 1,9,10
 658 771 658 771 631 771 c 0,11,12
 613 771 613 771 601.5 761.5 c 128,-1,13
 590 752 590 752 580.5 719 c 128,-1,14
 571 686 571 686 566 624 c 2,15,-1
 552 450 l 2,16,17
 548 391 548 391 534 275 c 128,-1,18
 520 159 520 159 513 132 c 0,19,20
 499 78 499 78 471 43 c 128,-1,21
 443 8 443 8 397 8 c 0,22,23
 365 8 365 8 342.5 24.5 c 128,-1,24
 320 41 320 41 320 66 c 0,25,26
 320 81 320 81 329 89 c 128,-1,27
 338 97 338 97 350 97 c 0,28,29
 361 97 361 97 369.5 89 c 128,-1,30
 378 81 378 81 378 67 c 0,31,32
 378 58 378 58 372 49.5 c 128,-1,33
 366 41 366 41 352 38 c 1,34,35
 369 24 369 24 397 24 c 0,36,37
 429 24 429 24 447 56 c 128,-1,38
 465 88 465 88 471 170 c 2,39,-1
 485 344 l 2,40,41
 490 406 490 406 504 520.5 c 128,-1,42
 518 635 518 635 524 665 c 0,43,44
 552 786 552 786 630 786 c 0,45,46
 662 786 662 786 684.5 769.5 c 128,-1,47
 707 753 707 753 707 728 c 0,0,1
780 879 m 2,48,49
 775 879 775 879 770 875 c 128,-1,50
 765 871 765 871 765 864 c 2,51,-1
 765 733 l 2,52,53
 765 727 765 727 769 722.5 c 128,-1,54
 773 718 773 718 780 718 c 2,55,-1
 919 718 l 2,56,57
 924 718 924 718 929 722 c 128,-1,58
 934 726 934 726 934 733 c 2,59,-1
 934 864 l 2,60,61
 934 870 934 870 929.5 874.5 c 128,-1,62
 925 879 925 879 919 879 c 2,63,-1
 780 879 l 2,48,49
795 850 m 1,64,-1
 903 850 l 1,65,-1
 903 747 l 1,66,-1
 795 747 l 1,67,-1
 795 850 l 1,64,-1
EndSplineSet
EndChar

StartChar: plus
Encoding: 43 43 13
Width: 1000
GlyphClass: 2
Flags: W
LayerCount: 3
Fore
SplineSet
445 832 m 2,0,1
 440 832 440 832 435 828 c 128,-1,2
 430 824 430 824 430 817 c 2,3,-1
 430 686 l 2,4,5
 430 680 430 680 434 675.5 c 128,-1,6
 438 671 438 671 445 671 c 2,7,-1
 584 671 l 2,8,9
 589 671 589 671 594 675 c 128,-1,10
 599 679 599 679 599 686 c 2,11,-1
 599 817 l 2,12,13
 599 823 599 823 594.5 827.5 c 128,-1,14
 590 832 590 832 584 832 c 2,15,-1
 445 832 l 2,0,1
460 803 m 1,16,-1
 568 803 l 1,17,-1
 568 700 l 1,18,-1
 460 700 l 1,19,-1
 460 803 l 1,16,-1
447 123 m 2,20,21
 442 123 442 123 437 119 c 128,-1,22
 432 115 432 115 432 109 c 2,23,-1
 432 -23 l 2,24,25
 432 -28 432 -28 436 -33 c 128,-1,26
 440 -38 440 -38 447 -38 c 2,27,-1
 586 -38 l 2,28,29
 591 -38 591 -38 596 -34 c 128,-1,30
 601 -30 601 -30 601 -23 c 2,31,-1
 601 109 l 2,32,33
 601 114 601 114 596.5 118.5 c 128,-1,34
 592 123 592 123 586 123 c 2,35,-1
 447 123 l 2,20,21
462 94 m 1,36,-1
 570 94 l 1,37,-1
 570 -9 l 1,38,-1
 462 -9 l 1,39,-1
 462 94 l 1,36,-1
752 276 m 1,40,-1
 709 151 l 1,41,-1
 294 151 l 2,42,43
 286 151 286 151 283.5 152 c 128,-1,44
 281 153 281 153 281 157 c 0,45,46
 281 159 281 159 285 165 c 2,47,-1
 463 384 l 1,48,-1
 280 635 l 1,49,50
 280 647 280 647 282 649 c 128,-1,51
 284 651 284 651 294 651 c 2,52,-1
 709 651 l 1,53,-1
 752 534 l 1,54,-1
 739 534 l 1,55,56
 731 557 731 557 716.5 574 c 128,-1,57
 702 591 702 591 682.5 601 c 128,-1,58
 663 611 663 611 644.5 617.5 c 128,-1,59
 626 624 626 624 603 627 c 128,-1,60
 580 630 580 630 565.5 630.5 c 128,-1,61
 551 631 551 631 532 631 c 2,62,-1
 334 631 l 1,63,-1
 497 408 l 2,64,65
 500 403 500 403 500 401 c 128,-1,66
 500 399 500 399 496 393 c 2,67,-1
 322 179 l 1,68,-1
 535 179 l 2,69,70
 604 179 604 179 651 193 c 0,71,72
 683 204 683 204 706.5 226 c 128,-1,73
 730 248 730 248 739 276 c 1,74,-1
 752 276 l 1,40,-1
EndSplineSet
EndChar

StartChar: comma
Encoding: 44 44 14
Width: 1000
GlyphClass: 2
Flags: W
LayerCount: 3
Fore
SplineSet
390 -312 m 2,0,1
 379 -312 379 -312 369 -320.5 c 128,-1,2
 359 -329 359 -329 359 -341 c 2,3,-1
 359 -605 l 2,4,5
 359 -615 359 -615 368 -624.5 c 128,-1,6
 377 -634 377 -634 390 -634 c 2,7,-1
 667 -634 l 2,8,9
 678 -634 678 -634 688 -626 c 128,-1,10
 698 -618 698 -618 698 -605 c 2,11,-1
 698 -341 l 2,12,13
 698 -331 698 -331 689 -321.5 c 128,-1,14
 680 -312 680 -312 667 -312 c 2,15,-1
 390 -312 l 2,0,1
421 -371 m 1,16,-1
 636 -371 l 1,17,-1
 636 -576 l 1,18,-1
 421 -576 l 1,19,-1
 421 -371 l 1,16,-1
999 -7 m 1,20,-1
 913 -256 l 1,21,-1
 84 -256 l 2,22,23
 68 -256 68 -256 62.5 -254.5 c 128,-1,24
 57 -253 57 -253 57 -245 c 0,25,26
 57 -240 57 -240 66 -229 c 2,27,-1
 421 210 l 1,28,-1
 56 712 l 1,29,30
 56 735 56 735 60 739.5 c 128,-1,31
 64 744 64 744 84 744 c 2,32,-1
 913 744 l 1,33,-1
 999 510 l 1,34,-1
 974 510 l 1,35,36
 957 555 957 555 928 589 c 128,-1,37
 899 623 899 623 860 643.5 c 128,-1,38
 821 664 821 664 784.5 677 c 128,-1,39
 748 690 748 690 701.5 695.5 c 128,-1,40
 655 701 655 701 626 702.5 c 128,-1,41
 597 704 597 704 560 704 c 2,42,-1
 164 704 l 1,43,-1
 489 258 l 2,44,45
 496 248 496 248 496 244 c 128,-1,46
 496 240 496 240 487 228 c 2,47,-1
 140 -201 l 1,48,-1
 565 -201 l 2,49,50
 704 -201 704 -201 797 -172 c 0,51,52
 861 -150 861 -150 908 -106.5 c 128,-1,53
 955 -63 955 -63 974 -7 c 1,54,-1
 999 -7 l 1,20,-1
EndSplineSet
EndChar

StartChar: hyphen
Encoding: 45 45 15
Width: 1000
GlyphClass: 2
Flags: W
LayerCount: 3
Fore
SplineSet
386 1105 m 2,0,1
 375 1105 375 1105 365 1097 c 128,-1,2
 355 1089 355 1089 355 1076 c 2,3,-1
 355 813 l 2,4,5
 355 802 355 802 364 792.5 c 128,-1,6
 373 783 373 783 386 783 c 2,7,-1
 663 783 l 2,8,9
 674 783 674 783 684 791.5 c 128,-1,10
 694 800 694 800 694 813 c 2,11,-1
 694 1076 l 2,12,13
 694 1087 694 1087 685 1096 c 128,-1,14
 676 1105 676 1105 663 1105 c 2,15,-1
 386 1105 l 2,0,1
417 1047 m 1,16,-1
 632 1047 l 1,17,-1
 632 842 l 1,18,-1
 417 842 l 1,19,-1
 417 1047 l 1,16,-1
999 -7 m 1,20,-1
 913 -256 l 1,21,-1
 84 -256 l 2,22,23
 68 -256 68 -256 62.5 -254.5 c 128,-1,24
 57 -253 57 -253 57 -245 c 0,25,26
 57 -240 57 -240 66 -229 c 2,27,-1
 421 210 l 1,28,-1
 56 712 l 1,29,30
 56 735 56 735 60 739.5 c 128,-1,31
 64 744 64 744 84 744 c 2,32,-1
 913 744 l 1,33,-1
 999 510 l 1,34,-1
 974 510 l 1,35,36
 957 555 957 555 928 589 c 128,-1,37
 899 623 899 623 860 643.5 c 128,-1,38
 821 664 821 664 784.5 677 c 128,-1,39
 748 690 748 690 701.5 695.5 c 128,-1,40
 655 701 655 701 626 702.5 c 128,-1,41
 597 704 597 704 560 704 c 2,42,-1
 164 704 l 1,43,-1
 489 258 l 2,44,45
 496 248 496 248 496 244 c 128,-1,46
 496 240 496 240 487 228 c 2,47,-1
 140 -201 l 1,48,-1
 565 -201 l 2,49,50
 704 -201 704 -201 797 -172 c 0,51,52
 861 -150 861 -150 908 -106.5 c 128,-1,53
 955 -63 955 -63 974 -7 c 1,54,-1
 999 -7 l 1,20,-1
EndSplineSet
EndChar

StartChar: period
Encoding: 46 46 16
Width: 1000
GlyphClass: 2
Flags: W
LayerCount: 3
Fore
SplineSet
707 728 m 4,0,1
 707 713 707 713 698.5 705.5 c 132,-1,2
 690 698 690 698 678 698 c 4,3,4
 667 698 667 698 658 705.5 c 132,-1,5
 649 713 649 713 649 727 c 4,6,7
 649 736 649 736 655.5 745 c 132,-1,8
 662 754 662 754 675 756 c 5,9,10
 658 771 658 771 631 771 c 4,11,12
 613 771 613 771 601.5 761.5 c 132,-1,13
 590 752 590 752 580.5 719 c 132,-1,14
 571 686 571 686 566 624 c 6,15,-1
 552 450 l 6,16,17
 548 391 548 391 534 275 c 132,-1,18
 520 159 520 159 513 132 c 4,19,20
 499 78 499 78 471 43 c 132,-1,21
 443 8 443 8 397 8 c 4,22,23
 365 8 365 8 342.5 24.5 c 132,-1,24
 320 41 320 41 320 66 c 4,25,26
 320 81 320 81 329 89 c 132,-1,27
 338 97 338 97 350 97 c 4,28,29
 361 97 361 97 369.5 89 c 132,-1,30
 378 81 378 81 378 67 c 4,31,32
 378 58 378 58 372 49.5 c 132,-1,33
 366 41 366 41 352 38 c 5,34,35
 369 24 369 24 397 24 c 4,36,37
 429 24 429 24 447 56 c 132,-1,38
 465 88 465 88 471 170 c 6,39,-1
 485 344 l 6,40,41
 490 406 490 406 504 520.5 c 132,-1,42
 518 635 518 635 524 665 c 4,43,44
 552 786 552 786 630 786 c 4,45,46
 662 786 662 786 684.5 769.5 c 132,-1,47
 707 753 707 753 707 728 c 4,0,1
EndSplineSet
EndChar

StartChar: slash
Encoding: 47 47 17
Width: 1000
GlyphClass: 2
Flags: W
LayerCount: 3
Fore
SplineSet
858 224 m 1,0,-1
 797 50 l 1,1,-1
 217 50 l 2,2,3
 206 50 206 50 202 51 c 128,-1,4
 198 52 198 52 198 58 c 0,5,6
 198 61 198 61 204 69 c 2,7,-1
 453 376 l 1,8,-1
 197 728 l 1,9,10
 197 744 197 744 200 747 c 128,-1,11
 203 750 203 750 217 750 c 2,12,-1
 797 750 l 1,13,-1
 858 586 l 1,14,-1
 840 586 l 1,15,16
 828 618 828 618 808 641.5 c 128,-1,17
 788 665 788 665 760.5 679.5 c 128,-1,18
 733 694 733 694 707.5 703 c 128,-1,19
 682 712 682 712 649.5 716 c 128,-1,20
 617 720 617 720 596.5 721 c 128,-1,21
 576 722 576 722 550 722 c 2,22,-1
 273 722 l 1,23,-1
 501 410 l 2,24,25
 505 403 505 403 505 400 c 128,-1,26
 505 397 505 397 499 389 c 2,27,-1
 256 88 l 1,28,-1
 554 88 l 2,29,30
 651 88 651 88 716 109 c 0,31,32
 761 124 761 124 794 154.5 c 128,-1,33
 827 185 827 185 840 224 c 1,34,-1
 858 224 l 1,0,-1
EndSplineSet
EndChar

StartChar: backslash
Encoding: 92 92 18
Width: 1000
GlyphClass: 2
Flags: W
LayerCount: 3
Fore
SplineSet
370 262 m 1,0,-1
 603 262 l 1,1,-1
 499 111 l 1,2,-1
 370 262 l 1,0,-1
470 457 m 1,3,-1
 373 457 l 1,4,-1
 373 366 l 1,5,-1
 470 366 l 1,6,-1
 470 457 l 1,3,-1
603 457 m 1,7,-1
 506 457 l 1,8,-1
 506 366 l 1,9,-1
 603 366 l 1,10,-1
 603 457 l 1,7,-1
748 366 m 1,11,-1
 651 366 l 1,12,-1
 651 457 l 1,13,-1
 748 457 l 1,14,-1
 748 366 l 1,11,-1
881 366 m 1,15,-1
 783 366 l 1,16,-1
 783 457 l 1,17,-1
 881 457 l 1,18,-1
 881 366 l 1,15,-1
192 366 m 1,19,-1
 95 366 l 1,20,-1
 95 457 l 1,21,-1
 192 457 l 1,22,-1
 192 366 l 1,19,-1
325 366 m 1,23,-1
 228 366 l 1,24,-1
 228 457 l 1,25,-1
 325 457 l 1,26,-1
 325 366 l 1,23,-1
539 595 m 1,27,-1
 442 595 l 1,28,-1
 442 504 l 1,29,-1
 539 504 l 1,30,-1
 539 595 l 1,27,-1
672 595 m 1,31,-1
 575 595 l 1,32,-1
 575 504 l 1,33,-1
 672 504 l 1,34,-1
 672 595 l 1,31,-1
817 504 m 1,35,-1
 720 504 l 1,36,-1
 720 595 l 1,37,-1
 817 595 l 1,38,-1
 817 504 l 1,35,-1
950 504 m 1,39,-1
 853 504 l 1,40,-1
 853 595 l 1,41,-1
 950 595 l 1,42,-1
 950 504 l 1,39,-1
116 595 m 1,43,-1
 19 595 l 1,44,-1
 19 504 l 1,45,-1
 116 504 l 1,46,-1
 116 595 l 1,43,-1
261 504 m 1,47,-1
 164 504 l 1,48,-1
 164 595 l 1,49,-1
 261 595 l 1,50,-1
 261 504 l 1,47,-1
394 504 m 1,51,-1
 297 504 l 1,52,-1
 297 595 l 1,53,-1
 394 595 l 1,54,-1
 394 504 l 1,51,-1
613 735 m 1,55,-1
 516 735 l 1,56,-1
 516 644 l 1,57,-1
 613 644 l 1,58,-1
 613 735 l 1,55,-1
745 735 m 1,59,-1
 648 735 l 1,60,-1
 648 644 l 1,61,-1
 745 644 l 1,62,-1
 745 735 l 1,59,-1
891 644 m 1,63,-1
 794 644 l 1,64,-1
 794 735 l 1,65,-1
 891 735 l 1,66,-1
 891 644 l 1,63,-1
1023 644 m 1,67,-1
 926 644 l 1,68,-1
 926 735 l 1,69,-1
 1023 735 l 1,70,-1
 1023 644 l 1,67,-1
57 735 m 1,71,-1
 -40 735 l 1,72,-1
 -40 644 l 1,73,-1
 57 644 l 1,74,-1
 57 735 l 1,71,-1
189 735 m 1,75,-1
 92 735 l 1,76,-1
 92 644 l 1,77,-1
 189 644 l 1,78,-1
 189 735 l 1,75,-1
335 644 m 1,79,-1
 238 644 l 1,80,-1
 238 735 l 1,81,-1
 335 735 l 1,82,-1
 335 644 l 1,79,-1
467 644 m 1,83,-1
 370 644 l 1,84,-1
 370 735 l 1,85,-1
 467 735 l 1,86,-1
 467 644 l 1,83,-1
EndSplineSet
EndChar

StartChar: asciicircum
Encoding: 94 94 19
Width: 1000
GlyphClass: 2
Flags: W
LayerCount: 3
Fore
SplineSet
509 511 m 2,0,1
 501 511 501 511 494.5 502.5 c 128,-1,2
 488 494 488 494 488 482 c 2,3,-1
 488 90 l 2,4,5
 488 80 488 80 494 71 c 128,-1,6
 500 62 500 62 509 62 c 2,7,-1
 810 62 l 2,8,9
 818 62 818 62 824.5 70 c 128,-1,10
 831 78 831 78 831 90 c 2,11,-1
 831 482 l 2,12,13
 831 492 831 492 825 501.5 c 128,-1,14
 819 511 819 511 810 511 c 2,15,-1
 509 511 l 2,0,1
530 453 m 1,16,-1
 790 453 l 1,17,-1
 790 119 l 1,18,-1
 530 119 l 1,19,-1
 530 453 l 1,16,-1
875 594 m 128,-1,21
 875 600 875 600 872 604 c 128,-1,22
 869 608 869 608 865 608 c 2,23,-1
 465 608 l 2,24,25
 457 608 457 608 455 597 c 2,26,-1
 376 189 l 1,27,-1
 345 280 l 2,28,29
 342 288 342 288 335 288 c 2,30,-1
 293 288 l 2,31,32
 289 288 289 288 286 284 c 128,-1,33
 283 280 283 280 283 274 c 128,-1,34
 283 268 283 268 286 263.5 c 128,-1,35
 289 259 289 259 293 259 c 2,36,-1
 329 259 l 1,37,-1
 370 141 l 2,38,39
 372 136 372 136 376 133.5 c 128,-1,40
 380 131 380 131 384 134 c 128,-1,41
 388 137 388 137 389 143 c 2,42,-1
 473 579 l 1,43,-1
 865 579 l 2,44,45
 869 579 869 579 872 583.5 c 128,-1,20
 875 588 875 588 875 594 c 128,-1,21
127 700 m 2,46,47
 119 700 119 700 112.5 692 c 128,-1,48
 106 684 106 684 106 671 c 2,49,-1
 106 369 l 2,50,51
 106 358 106 358 112 349 c 128,-1,52
 118 340 118 340 127 340 c 2,53,-1
 360 340 l 2,54,55
 367 340 367 340 374 348 c 128,-1,56
 381 356 381 356 381 369 c 2,57,-1
 381 671 l 2,58,59
 381 681 381 681 375 690.5 c 128,-1,60
 369 700 369 700 360 700 c 2,61,-1
 127 700 l 2,46,47
147 642 m 1,62,-1
 339 642 l 1,63,-1
 339 397 l 1,64,-1
 147 397 l 1,65,-1
 147 642 l 1,62,-1
EndSplineSet
EndChar

StartChar: zero
Encoding: 48 48 20
Width: 1000
Flags: W
LayerCount: 3
Fore
SplineSet
772 728 m 4,0,1
 772 713 772 713 763.5 705.5 c 132,-1,2
 755 698 755 698 743 698 c 4,3,4
 732 698 732 698 723 705.5 c 132,-1,5
 714 713 714 713 714 727 c 4,6,7
 714 736 714 736 720.5 745 c 132,-1,8
 727 754 727 754 740 756 c 5,9,10
 723 771 723 771 696 771 c 4,11,12
 678 771 678 771 666.5 761.5 c 132,-1,13
 655 752 655 752 645.5 719 c 132,-1,14
 636 686 636 686 631 624 c 6,15,-1
 617 450 l 6,16,17
 613 391 613 391 599 275 c 132,-1,18
 585 159 585 159 578 132 c 4,19,20
 564 78 564 78 536 43 c 132,-1,21
 508 8 508 8 462 8 c 4,22,23
 430 8 430 8 407.5 24.5 c 132,-1,24
 385 41 385 41 385 66 c 4,25,26
 385 81 385 81 394 89 c 132,-1,27
 403 97 403 97 415 97 c 4,28,29
 426 97 426 97 434.5 89 c 132,-1,30
 443 81 443 81 443 67 c 4,31,32
 443 58 443 58 437 49.5 c 132,-1,33
 431 41 431 41 417 38 c 5,34,35
 434 24 434 24 462 24 c 4,36,37
 494 24 494 24 512 56 c 132,-1,38
 530 88 530 88 536 170 c 6,39,-1
 550 344 l 6,40,41
 555 406 555 406 569 520.5 c 132,-1,42
 583 635 583 635 589 665 c 4,43,44
 617 786 617 786 695 786 c 4,45,46
 727 786 727 786 749.5 769.5 c 132,-1,47
 772 753 772 753 772 728 c 4,0,1
522 728 m 4,48,49
 522 713 522 713 513.5 705.5 c 132,-1,50
 505 698 505 698 493 698 c 4,51,52
 482 698 482 698 473 705.5 c 132,-1,53
 464 713 464 713 464 727 c 4,54,55
 464 736 464 736 470.5 745 c 132,-1,56
 477 754 477 754 490 756 c 5,57,58
 473 771 473 771 446 771 c 4,59,60
 428 771 428 771 416.5 761.5 c 132,-1,61
 405 752 405 752 395.5 719 c 132,-1,62
 386 686 386 686 381 624 c 6,63,-1
 367 450 l 6,64,65
 363 391 363 391 349 275 c 132,-1,66
 335 159 335 159 328 132 c 4,67,68
 314 78 314 78 286 43 c 132,-1,69
 258 8 258 8 212 8 c 4,70,71
 180 8 180 8 157.5 24.5 c 132,-1,72
 135 41 135 41 135 66 c 4,73,74
 135 81 135 81 144 89 c 132,-1,75
 153 97 153 97 165 97 c 4,76,77
 176 97 176 97 184.5 89 c 132,-1,78
 193 81 193 81 193 67 c 4,79,80
 193 58 193 58 187 49.5 c 132,-1,81
 181 41 181 41 167 38 c 5,82,83
 184 24 184 24 212 24 c 4,84,85
 244 24 244 24 262 56 c 132,-1,86
 280 88 280 88 286 170 c 6,87,-1
 300 344 l 6,88,89
 305 406 305 406 319 520.5 c 132,-1,90
 333 635 333 635 339 665 c 4,91,92
 367 786 367 786 445 786 c 4,93,94
 477 786 477 786 499.5 769.5 c 132,-1,95
 522 753 522 753 522 728 c 4,48,49
EndSplineSet
EndChar

StartChar: one
Encoding: 49 49 21
Width: 1000
Flags: W
LayerCount: 3
Fore
SplineSet
915 728 m 4,0,1
 915 713 915 713 906.5 705.5 c 132,-1,2
 898 698 898 698 886 698 c 4,3,4
 875 698 875 698 866 705.5 c 132,-1,5
 857 713 857 713 857 727 c 4,6,7
 857 736 857 736 863.5 745 c 132,-1,8
 870 754 870 754 883 756 c 5,9,10
 866 771 866 771 839 771 c 4,11,12
 821 771 821 771 809.5 761.5 c 132,-1,13
 798 752 798 752 788.5 719 c 132,-1,14
 779 686 779 686 774 624 c 6,15,-1
 760 450 l 6,16,17
 756 391 756 391 742 275 c 132,-1,18
 728 159 728 159 721 132 c 4,19,20
 707 78 707 78 679 43 c 132,-1,21
 651 8 651 8 605 8 c 4,22,23
 573 8 573 8 550.5 24.5 c 132,-1,24
 528 41 528 41 528 66 c 4,25,26
 528 81 528 81 537 89 c 132,-1,27
 546 97 546 97 558 97 c 4,28,29
 569 97 569 97 577.5 89 c 132,-1,30
 586 81 586 81 586 67 c 4,31,32
 586 58 586 58 580 49.5 c 132,-1,33
 574 41 574 41 560 38 c 5,34,35
 577 24 577 24 605 24 c 4,36,37
 637 24 637 24 655 56 c 132,-1,38
 673 88 673 88 679 170 c 6,39,-1
 693 344 l 6,40,41
 698 406 698 406 712 520.5 c 132,-1,42
 726 635 726 635 732 665 c 4,43,44
 760 786 760 786 838 786 c 4,45,46
 870 786 870 786 892.5 769.5 c 132,-1,47
 915 753 915 753 915 728 c 4,0,1
673 728 m 0,48,49
 673 713 673 713 664.5 705.5 c 128,-1,50
 656 698 656 698 644 698 c 0,51,52
 633 698 633 698 624 705.5 c 128,-1,53
 615 713 615 713 615 727 c 0,54,55
 615 736 615 736 621.5 745 c 128,-1,56
 628 754 628 754 641 756 c 1,57,58
 624 771 624 771 597 771 c 0,59,60
 579 771 579 771 567.5 761.5 c 128,-1,61
 556 752 556 752 546.5 719 c 128,-1,62
 537 686 537 686 532 624 c 2,63,-1
 518 450 l 2,64,65
 514 391 514 391 500 275 c 128,-1,66
 486 159 486 159 479 132 c 0,67,68
 465 78 465 78 437 43 c 128,-1,69
 409 8 409 8 363 8 c 0,70,71
 331 8 331 8 308.5 24.5 c 128,-1,72
 286 41 286 41 286 66 c 0,73,74
 286 81 286 81 295 89 c 128,-1,75
 304 97 304 97 316 97 c 0,76,77
 327 97 327 97 335.5 89 c 128,-1,78
 344 81 344 81 344 67 c 0,79,80
 344 58 344 58 338 49.5 c 128,-1,81
 332 41 332 41 318 38 c 1,82,83
 335 24 335 24 363 24 c 0,84,85
 395 24 395 24 413 56 c 128,-1,86
 431 88 431 88 437 170 c 2,87,-1
 451 344 l 2,88,89
 456 406 456 406 470 520.5 c 128,-1,90
 484 635 484 635 490 665 c 0,91,92
 518 786 518 786 596 786 c 0,93,94
 628 786 628 786 650.5 769.5 c 128,-1,95
 673 753 673 753 673 728 c 0,48,49
423 728 m 0,96,97
 423 713 423 713 414.5 705.5 c 128,-1,98
 406 698 406 698 394 698 c 0,99,100
 383 698 383 698 374 705.5 c 128,-1,101
 365 713 365 713 365 727 c 0,102,103
 365 736 365 736 371.5 745 c 128,-1,104
 378 754 378 754 391 756 c 1,105,106
 374 771 374 771 347 771 c 0,107,108
 329 771 329 771 317.5 761.5 c 128,-1,109
 306 752 306 752 296.5 719 c 128,-1,110
 287 686 287 686 282 624 c 2,111,-1
 268 450 l 2,112,113
 264 391 264 391 250 275 c 128,-1,114
 236 159 236 159 229 132 c 0,115,116
 215 78 215 78 187 43 c 128,-1,117
 159 8 159 8 113 8 c 0,118,119
 81 8 81 8 58.5 24.5 c 128,-1,120
 36 41 36 41 36 66 c 0,121,122
 36 81 36 81 45 89 c 128,-1,123
 54 97 54 97 66 97 c 0,124,125
 77 97 77 97 85.5 89 c 128,-1,126
 94 81 94 81 94 67 c 0,127,128
 94 58 94 58 88 49.5 c 128,-1,129
 82 41 82 41 68 38 c 1,130,131
 85 24 85 24 113 24 c 0,132,133
 145 24 145 24 163 56 c 128,-1,134
 181 88 181 88 187 170 c 2,135,-1
 201 344 l 2,136,137
 206 406 206 406 220 520.5 c 128,-1,138
 234 635 234 635 240 665 c 0,139,140
 268 786 268 786 346 786 c 0,141,142
 378 786 378 786 400.5 769.5 c 128,-1,143
 423 753 423 753 423 728 c 0,96,97
EndSplineSet
EndChar

StartChar: two
Encoding: 50 50 22
Width: 1000
VWidth: 0
LayerCount: 3
Fore
SplineSet
635.200195312 729 m 0,0,1
 635.200195312 714.299804688 635.200195312 714.299804688 626.450195312 706.599609375 c 128,-1,2
 617.700195312 698.900390625 617.700195312 698.900390625 605.80078125 698.900390625 c 0,3,4
 594.600585938 698.900390625 594.600585938 698.900390625 585.850585938 706.599609375 c 128,-1,5
 577.100585938 714.299804688 577.100585938 714.299804688 577.100585938 728.299804688 c 0,6,7
 577.100585938 737.400390625 577.100585938 737.400390625 583.400390625 746.150390625 c 128,-1,8
 589.700195312 754.900390625 589.700195312 754.900390625 603 757 c 1,9,10
 586.200195312 771.700195312 586.200195312 771.700195312 558.900390625 771.700195312 c 0,11,12
 540.700195312 771.700195312 540.700195312 771.700195312 529.5 762.599609375 c 128,-1,13
 518.30078125 753.5 518.30078125 753.5 508.5 720.25 c 128,-1,14
 498.700195312 687 498.700195312 687 493.80078125 625.400390625 c 2,15,-1
 487.5 539.299804688 l 1,16,17
 533.700195312 526 533.700195312 526 563.80078125 486.799804688 c 128,-1,18
 593.900390625 447.599609375 593.900390625 447.599609375 593.900390625 397.900390625 c 0,19,20
 593.900390625 340.5 593.900390625 340.5 554.700195312 298.5 c 128,-1,21
 515.5 256.5 515.5 256.5 458.80078125 251.599609375 c 1,22,23
 446.900390625 156.400390625 446.900390625 156.400390625 440.600585938 133.299804688 c 0,24,25
 427.30078125 79.400390625 427.30078125 79.400390625 399.30078125 44.400390625 c 128,-1,26
 371.30078125 9.400390625 371.30078125 9.400390625 325.100585938 9.400390625 c 0,27,28
 292.900390625 9.400390625 292.900390625 9.400390625 270.5 25.849609375 c 128,-1,29
 248.100585938 42.2998046875 248.100585938 42.2998046875 248.100585938 67.5 c 0,30,31
 248.100585938 82.2001953125 248.100585938 82.2001953125 256.850585938 89.900390625 c 128,-1,32
 265.600585938 97.599609375 265.600585938 97.599609375 277.5 97.599609375 c 0,33,34
 288.700195312 97.599609375 288.700195312 97.599609375 297.450195312 89.900390625 c 128,-1,35
 306.200195312 82.2001953125 306.200195312 82.2001953125 306.200195312 68.2001953125 c 0,36,37
 306.200195312 59.099609375 306.200195312 59.099609375 299.900390625 50.349609375 c 128,-1,38
 293.600585938 41.599609375 293.600585938 41.599609375 280.30078125 39.5 c 1,39,40
 297.100585938 24.7998046875 297.100585938 24.7998046875 325.100585938 24.7998046875 c 0,41,42
 356.600585938 24.7998046875 356.600585938 24.7998046875 374.80078125 57 c 128,-1,43
 393 89.2001953125 393 89.2001953125 399.30078125 171.099609375 c 2,44,-1
 405.600585938 257.200195312 l 1,45,46
 359.400390625 270.5 359.400390625 270.5 329.650390625 309.349609375 c 128,-1,47
 299.900390625 348.200195312 299.900390625 348.200195312 299.900390625 397.900390625 c 0,48,49
 299.900390625 456 299.900390625 456 338.75 498 c 128,-1,50
 377.600585938 540 377.600585938 540 434.30078125 544.900390625 c 1,51,52
 447.600585938 644.299804688 447.600585938 644.299804688 452.5 666 c 0,53,54
 479.80078125 787.099609375 479.80078125 787.099609375 558.200195312 787.099609375 c 0,55,56
 590.400390625 787.099609375 590.400390625 787.099609375 612.80078125 770.650390625 c 128,-1,57
 635.200195312 754.200195312 635.200195312 754.200195312 635.200195312 729 c 0,0,1
565.900390625 397.900390625 m 0,58,59
 565.900390625 436.400390625 565.900390625 436.400390625 543.150390625 467.549804688 c 128,-1,60
 520.400390625 498.700195312 520.400390625 498.700195312 485.400390625 510.599609375 c 1,61,-1
 480.5 451.099609375 l 1,62,-1
 462.30078125 280.299804688 l 1,63,64
 506.400390625 285.900390625 506.400390625 285.900390625 536.150390625 319.5 c 128,-1,65
 565.900390625 353.099609375 565.900390625 353.099609375 565.900390625 397.900390625 c 0,58,59
430.80078125 516.200195312 m 1,66,67
 386.700195312 510.599609375 386.700195312 510.599609375 357.30078125 477 c 128,-1,68
 327.900390625 443.400390625 327.900390625 443.400390625 327.900390625 397.900390625 c 0,69,70
 327.900390625 359.400390625 327.900390625 359.400390625 350.30078125 328.950195312 c 128,-1,71
 372.700195312 298.5 372.700195312 298.5 407.700195312 285.900390625 c 1,72,-1
 412.600585938 345.400390625 l 1,73,-1
 430.80078125 516.200195312 l 1,66,67
EndSplineSet
EndChar

StartChar: three
Encoding: 51 51 23
Width: 1000
VWidth: 0
LayerCount: 3
Fore
SplineSet
840.549804688 729.25 m 4,0,1
 840.549804688 714.549804688 840.549804688 714.549804688 831.799804688 706.849609375 c 132,-1,2
 823.049804688 699.150390625 823.049804688 699.150390625 811.150390625 699.150390625 c 4,3,4
 799.950195312 699.150390625 799.950195312 699.150390625 791.200195312 706.849609375 c 132,-1,5
 782.450195312 714.549804688 782.450195312 714.549804688 782.450195312 728.549804688 c 4,6,7
 782.450195312 737.650390625 782.450195312 737.650390625 788.75 746.400390625 c 132,-1,8
 795.049804688 755.150390625 795.049804688 755.150390625 808.349609375 757.25 c 5,9,10
 791.549804688 771.950195312 791.549804688 771.950195312 764.25 771.950195312 c 4,11,12
 746.049804688 771.950195312 746.049804688 771.950195312 734.849609375 762.849609375 c 132,-1,13
 723.650390625 753.75 723.650390625 753.75 713.849609375 720.5 c 132,-1,14
 704.049804688 687.25 704.049804688 687.25 699.150390625 625.650390625 c 6,15,-1
 690.75 514.349609375 l 5,16,17
 741.150390625 493.349609375 741.150390625 493.349609375 770.200195312 462.900390625 c 132,-1,18
 799.25 432.450195312 799.25 432.450195312 799.25 398.150390625 c 4,19,20
 799.25 360.349609375 799.25 360.349609375 763.200195312 327.099609375 c 132,-1,21
 727.150390625 293.849609375 727.150390625 293.849609375 666.950195312 273.549804688 c 5,22,23
 651.549804688 159.450195312 651.549804688 159.450195312 645.950195312 133.549804688 c 4,24,25
 632.650390625 79.650390625 632.650390625 79.650390625 604.650390625 44.650390625 c 132,-1,26
 576.650390625 9.650390625 576.650390625 9.650390625 530.450195312 9.650390625 c 4,27,28
 498.25 9.650390625 498.25 9.650390625 475.849609375 26.099609375 c 132,-1,29
 453.450195312 42.5498046875 453.450195312 42.5498046875 453.450195312 67.75 c 4,30,31
 453.450195312 82.4501953125 453.450195312 82.4501953125 462.200195312 90.150390625 c 132,-1,32
 470.950195312 97.849609375 470.950195312 97.849609375 482.849609375 97.849609375 c 4,33,34
 494.049804688 97.849609375 494.049804688 97.849609375 502.799804688 90.150390625 c 132,-1,35
 511.549804688 82.4501953125 511.549804688 82.4501953125 511.549804688 68.4501953125 c 4,36,37
 511.549804688 59.349609375 511.549804688 59.349609375 505.25 50.599609375 c 132,-1,38
 498.950195312 41.849609375 498.950195312 41.849609375 485.650390625 39.75 c 5,39,40
 502.450195312 25.0498046875 502.450195312 25.0498046875 530.450195312 25.0498046875 c 4,41,42
 561.950195312 25.0498046875 561.950195312 25.0498046875 580.150390625 57.25 c 132,-1,43
 598.349609375 89.4501953125 598.349609375 89.4501953125 604.650390625 171.349609375 c 6,44,-1
 611.650390625 259.549804688 l 5,45,46
 563.349609375 251.150390625 563.349609375 251.150390625 522.75 251.150390625 c 4,47,48
 464.650390625 251.150390625 464.650390625 251.150390625 406.549804688 265.150390625 c 5,49,50
 392.549804688 155.950195312 392.549804688 155.950195312 386.950195312 133.549804688 c 4,51,52
 373.650390625 79.650390625 373.650390625 79.650390625 345.650390625 44.650390625 c 132,-1,53
 317.650390625 9.650390625 317.650390625 9.650390625 271.450195312 9.650390625 c 4,54,55
 239.25 9.650390625 239.25 9.650390625 216.849609375 26.099609375 c 132,-1,56
 194.450195312 42.5498046875 194.450195312 42.5498046875 194.450195312 67.75 c 4,57,58
 194.450195312 82.4501953125 194.450195312 82.4501953125 203.200195312 90.150390625 c 132,-1,59
 211.950195312 97.849609375 211.950195312 97.849609375 223.849609375 97.849609375 c 4,60,61
 235.049804688 97.849609375 235.049804688 97.849609375 243.799804688 90.150390625 c 132,-1,62
 252.549804688 82.4501953125 252.549804688 82.4501953125 252.549804688 68.4501953125 c 4,63,64
 252.549804688 59.349609375 252.549804688 59.349609375 246.25 50.599609375 c 132,-1,65
 239.950195312 41.849609375 239.950195312 41.849609375 226.650390625 39.75 c 5,66,67
 243.450195312 25.0498046875 243.450195312 25.0498046875 271.450195312 25.0498046875 c 4,68,69
 302.950195312 25.0498046875 302.950195312 25.0498046875 321.150390625 57.25 c 132,-1,70
 339.349609375 89.4501953125 339.349609375 89.4501953125 345.650390625 171.349609375 c 6,71,-1
 354.049804688 282.650390625 l 5,72,73
 304.349609375 303.650390625 304.349609375 303.650390625 275.299804688 334.099609375 c 132,-1,74
 246.25 364.549804688 246.25 364.549804688 246.25 398.150390625 c 4,75,76
 246.25 436.650390625 246.25 436.650390625 281.950195312 469.900390625 c 132,-1,77
 317.650390625 503.150390625 317.650390625 503.150390625 377.849609375 523.450195312 c 5,78,79
 393.25 640.349609375 393.25 640.349609375 398.849609375 666.25 c 4,80,81
 426.150390625 787.349609375 426.150390625 787.349609375 504.549804688 787.349609375 c 4,82,83
 536.75 787.349609375 536.75 787.349609375 559.150390625 770.900390625 c 132,-1,84
 581.549804688 754.450195312 581.549804688 754.450195312 581.549804688 729.25 c 4,85,86
 581.549804688 714.549804688 581.549804688 714.549804688 572.799804688 706.849609375 c 132,-1,87
 564.049804688 699.150390625 564.049804688 699.150390625 552.150390625 699.150390625 c 4,88,89
 540.950195312 699.150390625 540.950195312 699.150390625 532.200195312 706.849609375 c 132,-1,90
 523.450195312 714.549804688 523.450195312 714.549804688 523.450195312 728.549804688 c 4,91,92
 523.450195312 737.650390625 523.450195312 737.650390625 529.75 746.400390625 c 132,-1,93
 536.049804688 755.150390625 536.049804688 755.150390625 549.349609375 757.25 c 5,94,95
 532.549804688 771.950195312 532.549804688 771.950195312 505.25 771.950195312 c 4,96,97
 487.049804688 771.950195312 487.049804688 771.950195312 475.849609375 762.849609375 c 132,-1,98
 464.650390625 753.75 464.650390625 753.75 454.849609375 720.5 c 132,-1,99
 445.049804688 687.25 445.049804688 687.25 440.150390625 625.650390625 c 6,100,-1
 433.150390625 537.450195312 l 5,101,102
 477.25 545.150390625 477.25 545.150390625 522.75 545.150390625 c 4,103,104
 582.950195312 545.150390625 582.950195312 545.150390625 638.25 531.849609375 c 5,105,106
 652.25 641.049804688 652.25 641.049804688 657.849609375 666.25 c 4,107,108
 685.150390625 787.349609375 685.150390625 787.349609375 763.549804688 787.349609375 c 4,109,110
 795.75 787.349609375 795.75 787.349609375 818.150390625 770.900390625 c 132,-1,111
 840.549804688 754.450195312 840.549804688 754.450195312 840.549804688 729.25 c 4,0,1
771.25 398.150390625 m 4,112,113
 771.25 453.450195312 771.25 453.450195312 688.650390625 487.75 c 5,114,-1
 685.849609375 451.349609375 l 5,115,-1
 670.450195312 302.25 l 5,116,117
 717.349609375 318.349609375 717.349609375 318.349609375 744.299804688 343.200195312 c 132,-1,118
 771.25 368.049804688 771.25 368.049804688 771.25 398.150390625 c 4,112,113
374.349609375 494.75 m 5,119,120
 327.450195312 478.650390625 327.450195312 478.650390625 300.849609375 453.450195312 c 132,-1,121
 274.25 428.25 274.25 428.25 274.25 398.150390625 c 4,122,123
 274.25 343.549804688 274.25 343.549804688 356.150390625 309.25 c 5,124,-1
 358.950195312 345.650390625 l 5,125,-1
 374.349609375 494.75 l 5,119,120
634.75 505.25 m 5,126,127
 582.950195312 517.150390625 582.950195312 517.150390625 522.75 517.150390625 c 4,128,129
 475.849609375 517.150390625 475.849609375 517.150390625 431.049804688 509.450195312 c 5,130,-1
 426.849609375 451.349609375 l 5,131,-1
 410.049804688 291.75 l 5,132,133
 465.349609375 279.150390625 465.349609375 279.150390625 522.75 279.150390625 c 4,134,135
 564.75 279.150390625 564.75 279.150390625 613.75 287.549804688 c 5,136,-1
 617.950195312 345.650390625 l 5,137,-1
 634.75 505.25 l 5,126,127
EndSplineSet
EndChar

StartChar: four
Encoding: 52 52 24
Width: 1000
VWidth: 0
LayerCount: 3
Fore
SplineSet
949 728.900390625 m 0,0,1
 949 714.200195312 949 714.200195312 940.25 706.5 c 128,-1,2
 931.5 698.80078125 931.5 698.80078125 919.600585938 698.80078125 c 0,3,4
 908.400390625 698.80078125 908.400390625 698.80078125 899.650390625 706.5 c 128,-1,5
 890.900390625 714.200195312 890.900390625 714.200195312 890.900390625 728.200195312 c 0,6,7
 890.900390625 737.30078125 890.900390625 737.30078125 897.200195312 746.05078125 c 128,-1,8
 903.5 754.80078125 903.5 754.80078125 916.799804688 756.900390625 c 1,9,10
 900 771.600585938 900 771.600585938 872.700195312 771.600585938 c 0,11,12
 854.5 771.600585938 854.5 771.600585938 843.299804688 762.5 c 128,-1,13
 832.100585938 753.400390625 832.100585938 753.400390625 822.299804688 720.150390625 c 128,-1,14
 812.5 686.900390625 812.5 686.900390625 807.600585938 625.30078125 c 2,15,-1
 798.5 509.80078125 l 1,16,17
 832.799804688 498.600585938 832.799804688 498.600585938 855.900390625 482.5 c 0,18,19
 907.700195312 448.900390625 907.700195312 448.900390625 907.700195312 397.80078125 c 0,20,21
 907.700195312 347.400390625 907.700195312 347.400390625 855.900390625 313.80078125 c 0,22,23
 826.5 293.5 826.5 293.5 776.100585938 279.5 c 1,24,25
 760.700195312 155.600585938 760.700195312 155.600585938 754.400390625 133.200195312 c 0,26,27
 741.100585938 79.30078125 741.100585938 79.30078125 713.100585938 44.30078125 c 128,-1,28
 685.100585938 9.30078125 685.100585938 9.30078125 638.900390625 9.30078125 c 0,29,30
 606.700195312 9.30078125 606.700195312 9.30078125 584.299804688 25.75 c 128,-1,31
 561.900390625 42.2001953125 561.900390625 42.2001953125 561.900390625 67.400390625 c 0,32,33
 561.900390625 82.1005859375 561.900390625 82.1005859375 570.650390625 89.80078125 c 128,-1,34
 579.400390625 97.5 579.400390625 97.5 591.299804688 97.5 c 0,35,36
 602.5 97.5 602.5 97.5 611.25 89.80078125 c 128,-1,37
 620 82.1005859375 620 82.1005859375 620 68.1005859375 c 0,38,39
 620 59 620 59 613.700195312 50.25 c 128,-1,40
 607.400390625 41.5 607.400390625 41.5 594.100585938 39.400390625 c 1,41,42
 610.900390625 24.7001953125 610.900390625 24.7001953125 638.900390625 24.7001953125 c 0,43,44
 670.400390625 24.7001953125 670.400390625 24.7001953125 688.600585938 56.900390625 c 128,-1,45
 706.799804688 89.1005859375 706.799804688 89.1005859375 713.100585938 171 c 2,46,-1
 720.100585938 266.900390625 l 1,47,-1
 718.700195312 266.900390625 l 1,48,49
 630.5 251.5 630.5 251.5 513.600585938 251.5 c 1,50,51
 501.700195312 157 501.700195312 157 495.400390625 133.200195312 c 0,52,53
 482.100585938 79.30078125 482.100585938 79.30078125 454.100585938 44.30078125 c 128,-1,54
 426.100585938 9.30078125 426.100585938 9.30078125 379.900390625 9.30078125 c 0,55,56
 347.700195312 9.30078125 347.700195312 9.30078125 325.299804688 25.75 c 128,-1,57
 302.900390625 42.2001953125 302.900390625 42.2001953125 302.900390625 67.400390625 c 0,58,59
 302.900390625 82.1005859375 302.900390625 82.1005859375 311.650390625 89.80078125 c 128,-1,60
 320.400390625 97.5 320.400390625 97.5 332.299804688 97.5 c 0,61,62
 343.5 97.5 343.5 97.5 352.25 89.80078125 c 128,-1,63
 361 82.1005859375 361 82.1005859375 361 68.1005859375 c 0,64,65
 361 59 361 59 354.700195312 50.25 c 128,-1,66
 348.400390625 41.5 348.400390625 41.5 335.100585938 39.400390625 c 1,67,68
 351.900390625 24.7001953125 351.900390625 24.7001953125 379.900390625 24.7001953125 c 0,69,70
 411.400390625 24.7001953125 411.400390625 24.7001953125 429.600585938 56.900390625 c 128,-1,71
 447.799804688 89.1005859375 447.799804688 89.1005859375 454.100585938 171 c 2,72,-1
 460.400390625 251.5 l 1,73,74
 355.400390625 253.600585938 355.400390625 253.600585938 284 266.900390625 c 2,75,-1
 257.400390625 271.80078125 l 1,76,77
 242 157 242 157 236.400390625 133.200195312 c 0,78,79
 223.100585938 79.30078125 223.100585938 79.30078125 195.100585938 44.30078125 c 128,-1,80
 167.100585938 9.30078125 167.100585938 9.30078125 120.900390625 9.30078125 c 0,81,82
 88.7001953125 9.30078125 88.7001953125 9.30078125 66.2998046875 25.75 c 128,-1,83
 43.900390625 42.2001953125 43.900390625 42.2001953125 43.900390625 67.400390625 c 0,84,85
 43.900390625 82.1005859375 43.900390625 82.1005859375 52.650390625 89.80078125 c 128,-1,86
 61.400390625 97.5 61.400390625 97.5 73.2998046875 97.5 c 0,87,88
 84.5 97.5 84.5 97.5 93.25 89.80078125 c 128,-1,89
 102 82.1005859375 102 82.1005859375 102 68.1005859375 c 0,90,91
 102 59 102 59 95.7001953125 50.25 c 128,-1,92
 89.400390625 41.5 89.400390625 41.5 76.1005859375 39.400390625 c 1,93,94
 92.900390625 24.7001953125 92.900390625 24.7001953125 120.900390625 24.7001953125 c 0,95,96
 152.400390625 24.7001953125 152.400390625 24.7001953125 170.600585938 56.900390625 c 128,-1,97
 188.799804688 89.1005859375 188.799804688 89.1005859375 195.100585938 171 c 2,98,-1
 204.200195312 286.5 l 1,99,100
 169.900390625 297.700195312 169.900390625 297.700195312 146.799804688 313.80078125 c 0,101,102
 95.7001953125 347.400390625 95.7001953125 347.400390625 95.7001953125 397.80078125 c 0,103,104
 95.7001953125 448.900390625 95.7001953125 448.900390625 146.799804688 482.5 c 0,105,106
 176.200195312 502.80078125 176.200195312 502.80078125 226.600585938 516.80078125 c 1,107,108
 241.299804688 631.600585938 241.299804688 631.600585938 248.299804688 665.900390625 c 0,109,110
 275.600585938 787 275.600585938 787 354 787 c 0,111,112
 386.200195312 787 386.200195312 787 408.600585938 770.55078125 c 128,-1,113
 431 754.100585938 431 754.100585938 431 728.900390625 c 0,114,115
 431 714.200195312 431 714.200195312 422.25 706.5 c 128,-1,116
 413.5 698.80078125 413.5 698.80078125 401.600585938 698.80078125 c 0,117,118
 390.400390625 698.80078125 390.400390625 698.80078125 381.650390625 706.5 c 128,-1,119
 372.900390625 714.200195312 372.900390625 714.200195312 372.900390625 728.200195312 c 0,120,121
 372.900390625 737.30078125 372.900390625 737.30078125 379.200195312 746.05078125 c 128,-1,122
 385.5 754.80078125 385.5 754.80078125 398.799804688 756.900390625 c 1,123,124
 382 771.600585938 382 771.600585938 354.700195312 771.600585938 c 0,125,126
 336.5 771.600585938 336.5 771.600585938 325.299804688 762.5 c 128,-1,127
 314.100585938 753.400390625 314.100585938 753.400390625 304.299804688 720.150390625 c 128,-1,128
 294.5 686.900390625 294.5 686.900390625 289.600585938 625.30078125 c 2,129,-1
 282.600585938 529.400390625 l 1,130,-1
 284 529.400390625 l 1,131,132
 372.200195312 544.80078125 372.200195312 544.80078125 489.100585938 544.80078125 c 1,133,134
 502.400390625 644.200195312 502.400390625 644.200195312 507.299804688 665.900390625 c 0,135,136
 534.600585938 787 534.600585938 787 613 787 c 0,137,138
 645.200195312 787 645.200195312 787 667.600585938 770.55078125 c 128,-1,139
 690 754.100585938 690 754.100585938 690 728.900390625 c 0,140,141
 690 714.200195312 690 714.200195312 681.25 706.5 c 128,-1,142
 672.5 698.80078125 672.5 698.80078125 660.600585938 698.80078125 c 0,143,144
 649.400390625 698.80078125 649.400390625 698.80078125 640.650390625 706.5 c 128,-1,145
 631.900390625 714.200195312 631.900390625 714.200195312 631.900390625 728.200195312 c 0,146,147
 631.900390625 737.30078125 631.900390625 737.30078125 638.200195312 746.05078125 c 128,-1,148
 644.5 754.80078125 644.5 754.80078125 657.799804688 756.900390625 c 1,149,150
 641 771.600585938 641 771.600585938 613.700195312 771.600585938 c 0,151,152
 595.5 771.600585938 595.5 771.600585938 584.299804688 762.5 c 128,-1,153
 573.100585938 753.400390625 573.100585938 753.400390625 563.299804688 720.150390625 c 128,-1,154
 553.5 686.900390625 553.5 686.900390625 548.600585938 625.30078125 c 2,155,-1
 542.299804688 544.80078125 l 1,156,157
 647.299804688 542.700195312 647.299804688 542.700195312 718.700195312 529.400390625 c 2,158,-1
 746 524.5 l 1,159,160
 759.299804688 633 759.299804688 633 766.299804688 665.900390625 c 0,161,162
 793.600585938 787 793.600585938 787 872 787 c 0,163,164
 904.200195312 787 904.200195312 787 926.600585938 770.55078125 c 128,-1,165
 949 754.100585938 949 754.100585938 949 728.900390625 c 0,0,1
879.700195312 397.80078125 m 0,166,167
 879.700195312 433.5 879.700195312 433.5 840.5 459.400390625 c 0,168,169
 820.200195312 472.700195312 820.200195312 472.700195312 796.400390625 481.100585938 c 1,170,-1
 794.299804688 451 l 1,171,-1
 779.600585938 309.600585938 l 1,172,173
 816.700195312 321.5 816.700195312 321.5 840.5 336.900390625 c 0,174,175
 879.700195312 362.80078125 879.700195312 362.80078125 879.700195312 397.80078125 c 0,166,167
223.100585938 486.700195312 m 1,176,177
 186.700195312 475.5 186.700195312 475.5 162.200195312 459.400390625 c 0,178,179
 123.700195312 433.5 123.700195312 433.5 123.700195312 397.80078125 c 0,180,181
 123.700195312 362.80078125 123.700195312 362.80078125 162.200195312 336.900390625 c 0,182,183
 182.5 323.600585938 182.5 323.600585938 206.299804688 315.200195312 c 1,184,-1
 208.400390625 345.30078125 l 1,185,-1
 223.100585938 486.700195312 l 1,176,177
485.600585938 516.80078125 m 1,186,187
 375.700195312 516.80078125 375.700195312 516.80078125 288.900390625 502.100585938 c 2,188,-1
 279.799804688 500.700195312 l 1,189,-1
 276.299804688 451 l 1,190,-1
 260.200195312 299.80078125 l 1,191,-1
 288.900390625 294.200195312 l 2,192,193
 361 281.600585938 361 281.600585938 462.5 279.5 c 1,194,-1
 467.400390625 345.30078125 l 1,195,-1
 485.600585938 516.80078125 l 1,186,187
742.5 496.5 m 1,196,-1
 713.799804688 502.100585938 l 2,197,198
 641.700195312 514.700195312 641.700195312 514.700195312 540.200195312 516.80078125 c 1,199,-1
 535.299804688 451 l 1,200,-1
 517.100585938 279.5 l 1,201,202
 627 279.5 627 279.5 713.799804688 294.200195312 c 2,203,-1
 722.900390625 295.600585938 l 1,204,-1
 726.400390625 345.30078125 l 1,205,-1
 742.5 496.5 l 1,196,-1
EndSplineSet
EndChar

StartChar: five
Encoding: 53 53 25
Width: 1000
VWidth: 0
LayerCount: 3
Fore
SplineSet
701.599609375 467.700195312 m 4,0,1
 703 458.600585938 703 458.600585938 695.299804688 454.400390625 c 4,2,3
 661.700195312 431.30078125 661.700195312 431.30078125 657.5 392.100585938 c 4,4,5
 656.099609375 381.600585938 656.099609375 381.600585938 645.599609375 380.200195312 c 4,6,7
 635.799804688 378.100585938 635.799804688 378.100585938 630.900390625 387.200195312 c 4,8,9
 612 422.900390625 612 422.900390625 573.5 432.700195312 c 4,10,11
 565.099609375 435.5 565.099609375 435.5 563.700195312 443.900390625 c 4,12,13
 560.900390625 457.200195312 560.900390625 457.200195312 574.900390625 460 c 5,14,-1
 580.5 460 l 5,15,16
 603.599609375 453.700195312 603.599609375 453.700195312 621.099609375 441.100585938 c 5,17,18
 609.900390625 480.30078125 609.900390625 480.30078125 581.200195312 509 c 132,-1,19
 552.5 537.700195312 552.5 537.700195312 513.299804688 548.900390625 c 5,20,-1
 506.299804688 453 l 6,21,22
 502.099609375 393.5 502.099609375 393.5 487.75 277.650390625 c 132,-1,23
 473.400390625 161.80078125 473.400390625 161.80078125 466.400390625 135.200195312 c 4,24,25
 453.099609375 81.30078125 453.099609375 81.30078125 425.099609375 46.30078125 c 132,-1,26
 397.099609375 11.30078125 397.099609375 11.30078125 350.900390625 11.30078125 c 4,27,28
 318.700195312 11.30078125 318.700195312 11.30078125 296.299804688 27.75 c 132,-1,29
 273.900390625 44.2001953125 273.900390625 44.2001953125 273.900390625 69.400390625 c 4,30,31
 273.900390625 84.1005859375 273.900390625 84.1005859375 282.650390625 91.80078125 c 132,-1,32
 291.400390625 99.5 291.400390625 99.5 303.299804688 99.5 c 4,33,34
 314.5 99.5 314.5 99.5 323.25 91.80078125 c 132,-1,35
 332 84.1005859375 332 84.1005859375 332 70.1005859375 c 4,36,37
 332 61 332 61 325.700195312 52.25 c 132,-1,38
 319.400390625 43.5 319.400390625 43.5 306.099609375 41.400390625 c 5,39,40
 322.900390625 26.7001953125 322.900390625 26.7001953125 350.900390625 26.7001953125 c 4,41,42
 382.400390625 26.7001953125 382.400390625 26.7001953125 400.599609375 58.900390625 c 132,-1,43
 418.799804688 91.1005859375 418.799804688 91.1005859375 425.099609375 173 c 6,44,-1
 438.400390625 347.30078125 l 5,45,-1
 461.5 553.80078125 l 5,46,47
 401.299804688 549.600585938 401.299804688 549.600585938 360 505.150390625 c 132,-1,48
 318.700195312 460.700195312 318.700195312 460.700195312 318.700195312 399.80078125 c 4,49,50
 318.700195312 394.200195312 318.700195312 394.200195312 314.5 390 c 132,-1,51
 310.299804688 385.80078125 310.299804688 385.80078125 304.700195312 385.80078125 c 4,52,53
 298.400390625 385.80078125 298.400390625 385.80078125 294.549804688 390 c 132,-1,54
 290.700195312 394.200195312 290.700195312 394.200195312 290.700195312 399.80078125 c 4,55,56
 290.700195312 473.30078125 290.700195312 473.30078125 341.450195312 526.150390625 c 132,-1,57
 392.200195312 579 392.200195312 579 465 581.80078125 c 5,58,59
 474.099609375 648.30078125 474.099609375 648.30078125 478.299804688 667.900390625 c 4,60,61
 505.599609375 789 505.599609375 789 584 789 c 4,62,63
 616.200195312 789 616.200195312 789 638.599609375 772.55078125 c 132,-1,64
 661 756.100585938 661 756.100585938 661 730.900390625 c 4,65,66
 661 716.200195312 661 716.200195312 652.25 708.5 c 132,-1,67
 643.5 700.80078125 643.5 700.80078125 631.599609375 700.80078125 c 4,68,69
 620.400390625 700.80078125 620.400390625 700.80078125 611.650390625 708.5 c 132,-1,70
 602.900390625 716.200195312 602.900390625 716.200195312 602.900390625 730.200195312 c 4,71,72
 602.900390625 739.30078125 602.900390625 739.30078125 609.200195312 748.05078125 c 132,-1,73
 615.5 756.80078125 615.5 756.80078125 628.799804688 758.900390625 c 5,74,75
 612 773.600585938 612 773.600585938 584.700195312 773.600585938 c 4,76,77
 566.5 773.600585938 566.5 773.600585938 555.299804688 764.5 c 132,-1,78
 544.099609375 755.400390625 544.099609375 755.400390625 534.299804688 722.150390625 c 132,-1,79
 524.5 688.900390625 524.5 688.900390625 519.599609375 627.30078125 c 6,80,-1
 516.099609375 576.900390625 l 5,81,82
 564.400390625 565 564.400390625 565 600.099609375 529.650390625 c 132,-1,83
 635.799804688 494.30078125 635.799804688 494.30078125 648.400390625 446 c 5,84,85
 661 463.5 661 463.5 679.900390625 477.5 c 4,86,87
 681.299804688 478.200195312 681.299804688 478.200195312 685.5 479.600585938 c 4,88,89
 691.099609375 481 691.099609375 481 696 477.150390625 c 132,-1,90
 700.900390625 473.30078125 700.900390625 473.30078125 701.599609375 467.700195312 c 4,0,1
EndSplineSet
EndChar

StartChar: six
Encoding: 54 54 26
Width: 1000
VWidth: 0
LayerCount: 3
Fore
SplineSet
693.799804688 513.400390625 m 0,0,1
 697.299804688 505 697.299804688 505 690.299804688 498 c 0,2,3
 662.299804688 470 662.299804688 470 664.399414062 430.100585938 c 0,4,5
 664.399414062 419.600585938 664.399414062 419.600585938 655.299804688 416.100585938 c 128,-1,6
 646.19921875 412.600585938 646.19921875 412.600585938 639.19921875 421 c 0,7,8
 614.69921875 452.5 614.69921875 452.5 574.799804688 454.600585938 c 0,9,10
 566.399414062 454.600585938 566.399414062 454.600585938 562.899414062 463.700195312 c 0,11,12
 558 477 558 477 570.599609375 481.900390625 c 0,13,14
 572.69921875 482.600585938 572.69921875 482.600585938 576.899414062 482.600585938 c 0,15,16
 600.69921875 480.5 600.69921875 480.5 619.599609375 471.400390625 c 1,17,18
 588.099609375 533.700195312 588.099609375 533.700195312 522.299804688 551.900390625 c 1,19,-1
 515.299804688 456 l 1,20,-1
 492.899414062 249.5 l 1,21,22
 543.299804688 253 543.299804688 253 581.099609375 285.55078125 c 128,-1,23
 618.899414062 318.100585938 618.899414062 318.100585938 630.799804688 366.400390625 c 0,24,25
 633.599609375 376.900390625 633.599609375 376.900390625 644.799804688 376.900390625 c 0,26,27
 650.399414062 376.900390625 650.399414062 376.900390625 654.599609375 372.700195312 c 128,-1,28
 658.799804688 368.5 658.799804688 368.5 658.799804688 362.900390625 c 0,29,30
 658.799804688 362.200195312 658.799804688 362.200195312 658.44921875 361.150390625 c 128,-1,31
 658.099609375 360.100585938 658.099609375 360.100585938 658.099609375 359.400390625 c 0,32,33
 644.099609375 301.30078125 644.099609375 301.30078125 596.849609375 262.450195312 c 128,-1,34
 549.599609375 223.600585938 549.599609375 223.600585938 488.69921875 221.5 c 1,35,36
 479.599609375 155.700195312 479.599609375 155.700195312 475.399414062 138.200195312 c 0,37,38
 462.099609375 84.30078125 462.099609375 84.30078125 434.099609375 49.30078125 c 128,-1,39
 406.099609375 14.30078125 406.099609375 14.30078125 359.899414062 14.30078125 c 0,40,41
 327.69921875 14.30078125 327.69921875 14.30078125 305.299804688 30.75 c 128,-1,42
 282.899414062 47.2001953125 282.899414062 47.2001953125 282.899414062 72.400390625 c 0,43,44
 282.899414062 87.1005859375 282.899414062 87.1005859375 291.649414062 94.80078125 c 128,-1,45
 300.399414062 102.5 300.399414062 102.5 312.299804688 102.5 c 0,46,47
 323.5 102.5 323.5 102.5 332.25 94.80078125 c 128,-1,48
 341 87.1005859375 341 87.1005859375 341 73.1005859375 c 0,49,50
 341 64 341 64 334.69921875 55.25 c 128,-1,51
 328.399414062 46.5 328.399414062 46.5 315.099609375 44.400390625 c 1,52,53
 331.899414062 29.7001953125 331.899414062 29.7001953125 359.899414062 29.7001953125 c 0,54,55
 391.399414062 29.7001953125 391.399414062 29.7001953125 409.599609375 61.900390625 c 128,-1,56
 427.799804688 94.1005859375 427.799804688 94.1005859375 434.099609375 176 c 2,57,-1
 437.599609375 226.400390625 l 1,58,59
 377.399414062 241.100585938 377.399414062 241.100585938 338.549804688 290.100585938 c 128,-1,60
 299.69921875 339.100585938 299.69921875 339.100585938 299.69921875 402.80078125 c 0,61,62
 299.69921875 476.30078125 299.69921875 476.30078125 350.44921875 529.150390625 c 128,-1,63
 401.19921875 582 401.19921875 582 474 584.80078125 c 1,64,65
 483.099609375 651.30078125 483.099609375 651.30078125 487.299804688 670.900390625 c 0,66,67
 514.599609375 792 514.599609375 792 593 792 c 0,68,69
 625.19921875 792 625.19921875 792 647.599609375 775.55078125 c 128,-1,70
 670 759.100585938 670 759.100585938 670 733.900390625 c 0,71,72
 670 719.200195312 670 719.200195312 661.25 711.5 c 128,-1,73
 652.5 703.80078125 652.5 703.80078125 640.599609375 703.80078125 c 0,74,75
 629.399414062 703.80078125 629.399414062 703.80078125 620.649414062 711.5 c 128,-1,76
 611.899414062 719.200195312 611.899414062 719.200195312 611.899414062 733.200195312 c 0,77,78
 611.899414062 742.30078125 611.899414062 742.30078125 618.19921875 751.05078125 c 128,-1,79
 624.5 759.80078125 624.5 759.80078125 637.799804688 761.900390625 c 1,80,81
 621 776.600585938 621 776.600585938 593.69921875 776.600585938 c 0,82,83
 575.5 776.600585938 575.5 776.600585938 564.299804688 767.5 c 128,-1,84
 553.099609375 758.400390625 553.099609375 758.400390625 543.299804688 725.150390625 c 128,-1,85
 533.5 691.900390625 533.5 691.900390625 528.599609375 630.30078125 c 2,86,-1
 525.099609375 579.900390625 l 1,87,88
 565 570.100585938 565 570.100585938 596.5 544.200195312 c 128,-1,89
 628 518.30078125 628 518.30078125 645.5 481.200195312 c 1,90,91
 655.299804688 502.200195312 655.299804688 502.200195312 670.69921875 518.30078125 c 0,92,93
 672.099609375 519.700195312 672.099609375 519.700195312 675.599609375 521.100585938 c 0,94,95
 688.899414062 526 688.899414062 526 693.799804688 513.400390625 c 0,0,1
470.5 556.80078125 m 1,96,97
 410.299804688 552.600585938 410.299804688 552.600585938 369 508.150390625 c 128,-1,98
 327.69921875 463.700195312 327.69921875 463.700195312 327.69921875 402.80078125 c 0,99,100
 327.69921875 350.30078125 327.69921875 350.30078125 359.19921875 309.350585938 c 128,-1,101
 390.69921875 268.400390625 390.69921875 268.400390625 440.399414062 254.400390625 c 1,102,-1
 447.399414062 350.30078125 l 1,103,-1
 470.5 556.80078125 l 1,96,97
EndSplineSet
EndChar

StartChar: seven
Encoding: 55 55 27
Width: 1000
VWidth: 0
LayerCount: 3
Fore
SplineSet
717.799804688 289.900390625 m 0,0,1
 712.899414062 277.30078125 712.899414062 277.30078125 699.599609375 282.200195312 c 0,2,3
 696.099609375 282.900390625 696.099609375 282.900390625 694.69921875 285 c 0,4,5
 679.299804688 301.100585938 679.299804688 301.100585938 669.5 322.100585938 c 1,6,7
 648.5 276.600585938 648.5 276.600585938 606.149414062 248.600585938 c 128,-1,8
 563.799804688 220.600585938 563.799804688 220.600585938 512.69921875 218.5 c 1,9,10
 503.599609375 152.700195312 503.599609375 152.700195312 499.399414062 135.200195312 c 0,11,12
 486.099609375 81.30078125 486.099609375 81.30078125 458.099609375 46.30078125 c 128,-1,13
 430.099609375 11.30078125 430.099609375 11.30078125 383.899414062 11.30078125 c 0,14,15
 351.69921875 11.30078125 351.69921875 11.30078125 329.299804688 27.75 c 128,-1,16
 306.899414062 44.2001953125 306.899414062 44.2001953125 306.899414062 69.400390625 c 0,17,18
 306.899414062 84.1005859375 306.899414062 84.1005859375 315.649414062 91.80078125 c 128,-1,19
 324.399414062 99.5 324.399414062 99.5 336.299804688 99.5 c 0,20,21
 347.5 99.5 347.5 99.5 356.25 91.80078125 c 128,-1,22
 365 84.1005859375 365 84.1005859375 365 70.1005859375 c 0,23,24
 365 61 365 61 358.69921875 52.25 c 128,-1,25
 352.399414062 43.5 352.399414062 43.5 339.099609375 41.400390625 c 1,26,27
 355.899414062 26.7001953125 355.899414062 26.7001953125 383.899414062 26.7001953125 c 0,28,29
 415.399414062 26.7001953125 415.399414062 26.7001953125 433.599609375 58.900390625 c 128,-1,30
 451.799804688 91.1005859375 451.799804688 91.1005859375 458.099609375 173 c 2,31,-1
 461.599609375 223.400390625 l 1,32,33
 401.399414062 238.100585938 401.399414062 238.100585938 362.549804688 287.100585938 c 128,-1,34
 323.69921875 336.100585938 323.69921875 336.100585938 323.69921875 399.80078125 c 0,35,36
 323.69921875 473.30078125 323.69921875 473.30078125 374.44921875 526.150390625 c 128,-1,37
 425.19921875 579 425.19921875 579 498 581.80078125 c 1,38,39
 507.099609375 648.30078125 507.099609375 648.30078125 511.299804688 667.900390625 c 0,40,41
 538.599609375 789 538.599609375 789 617 789 c 0,42,43
 649.19921875 789 649.19921875 789 671.599609375 772.55078125 c 128,-1,44
 694 756.100585938 694 756.100585938 694 730.900390625 c 0,45,46
 694 716.200195312 694 716.200195312 685.25 708.5 c 128,-1,47
 676.5 700.80078125 676.5 700.80078125 664.599609375 700.80078125 c 0,48,49
 653.399414062 700.80078125 653.399414062 700.80078125 644.649414062 708.5 c 128,-1,50
 635.899414062 716.200195312 635.899414062 716.200195312 635.899414062 730.200195312 c 0,51,52
 635.899414062 739.30078125 635.899414062 739.30078125 642.19921875 748.05078125 c 128,-1,53
 648.5 756.80078125 648.5 756.80078125 661.799804688 758.900390625 c 1,54,55
 645 773.600585938 645 773.600585938 617.69921875 773.600585938 c 0,56,57
 599.5 773.600585938 599.5 773.600585938 588.299804688 764.5 c 128,-1,58
 577.099609375 755.400390625 577.099609375 755.400390625 567.299804688 722.150390625 c 128,-1,59
 557.5 688.900390625 557.5 688.900390625 552.599609375 627.30078125 c 2,60,-1
 549.099609375 576.900390625 l 1,61,62
 598.099609375 565 598.099609375 565 634.149414062 528.950195312 c 128,-1,63
 670.19921875 492.900390625 670.19921875 492.900390625 682.099609375 443.900390625 c 0,64,65
 682.099609375 443.200195312 682.099609375 443.200195312 682.44921875 442.150390625 c 128,-1,66
 682.799804688 441.100585938 682.799804688 441.100585938 682.799804688 440.400390625 c 0,67,68
 682.799804688 434.80078125 682.799804688 434.80078125 678.599609375 430.600585938 c 128,-1,69
 674.399414062 426.400390625 674.399414062 426.400390625 668.799804688 426.400390625 c 0,70,71
 657.599609375 426.400390625 657.599609375 426.400390625 654.799804688 436.900390625 c 0,72,73
 645 477.5 645 477.5 615.94921875 507.600585938 c 128,-1,74
 586.899414062 537.700195312 586.899414062 537.700195312 546.299804688 548.900390625 c 1,75,-1
 539.299804688 453 l 1,76,-1
 516.899414062 246.5 l 1,77,78
 558.19921875 249.30078125 558.19921875 249.30078125 591.799804688 272.400390625 c 128,-1,79
 625.399414062 295.5 625.399414062 295.5 643.599609375 331.900390625 c 1,80,81
 624.69921875 322.80078125 624.69921875 322.80078125 600.899414062 320.700195312 c 0,82,83
 596.69921875 320.700195312 596.69921875 320.700195312 594.599609375 321.400390625 c 0,84,85
 582 326.30078125 582 326.30078125 586.899414062 339.600585938 c 0,86,87
 590.399414062 348.700195312 590.399414062 348.700195312 598.799804688 348.700195312 c 0,88,89
 638.69921875 350.80078125 638.69921875 350.80078125 663.19921875 382.30078125 c 0,90,91
 670.19921875 390.700195312 670.19921875 390.700195312 679.299804688 387.200195312 c 128,-1,92
 688.399414062 383.700195312 688.399414062 383.700195312 688.399414062 373.200195312 c 0,93,94
 686.299804688 333.30078125 686.299804688 333.30078125 714.299804688 305.30078125 c 0,95,96
 721.299804688 298.30078125 721.299804688 298.30078125 717.799804688 289.900390625 c 0,0,1
494.5 553.80078125 m 1,97,98
 434.299804688 549.600585938 434.299804688 549.600585938 393 505.150390625 c 128,-1,99
 351.69921875 460.700195312 351.69921875 460.700195312 351.69921875 399.80078125 c 0,100,101
 351.69921875 347.30078125 351.69921875 347.30078125 383.19921875 306.350585938 c 128,-1,102
 414.69921875 265.400390625 414.69921875 265.400390625 464.399414062 251.400390625 c 1,103,-1
 471.399414062 347.30078125 l 1,104,-1
 494.5 553.80078125 l 1,97,98
EndSplineSet
EndChar
